<svg width="38" height="15" viewBox="0 0 38 15" fill="none" xmlns="http://www.w3.org/2000/svg">
<path d="M2.84659 12.1534C2.43182 12.1534 2.0554 12.0753 1.71733 11.919C1.37926 11.7599 1.1108 11.5312 0.911932 11.233C0.713068 10.9318 0.613636 10.5682 0.613636 10.142C0.613636 9.76705 0.6875 9.46307 0.835227 9.23011C0.982955 8.99432 1.1804 8.80966 1.42756 8.67614C1.67472 8.54261 1.94744 8.44318 2.24574 8.37784C2.54688 8.30966 2.84943 8.25568 3.15341 8.21591C3.55114 8.16477 3.87358 8.12642 4.12074 8.10085C4.37074 8.07244 4.55256 8.02557 4.66619 7.96023C4.78267 7.89489 4.84091 7.78125 4.84091 7.61932V7.58523C4.84091 7.16477 4.72585 6.83807 4.49574 6.60511C4.26847 6.37216 3.9233 6.25568 3.46023 6.25568C2.98011 6.25568 2.60369 6.3608 2.33097 6.57102C2.05824 6.78125 1.86648 7.00568 1.75568 7.24432L0.801136 6.90341C0.971591 6.50568 1.19886 6.19602 1.48295 5.97443C1.76989 5.75 2.08239 5.59375 2.42045 5.50568C2.76136 5.41477 3.09659 5.36932 3.42614 5.36932C3.63636 5.36932 3.87784 5.39489 4.15057 5.44602C4.42614 5.49432 4.69176 5.59517 4.94744 5.74858C5.20597 5.90199 5.42045 6.13352 5.59091 6.44318C5.76136 6.75284 5.84659 7.16761 5.84659 7.6875V12H4.84091V11.1136H4.78977C4.72159 11.2557 4.60795 11.4077 4.44886 11.5696C4.28977 11.7315 4.07813 11.8693 3.81392 11.983C3.54972 12.0966 3.22727 12.1534 2.84659 12.1534ZM3 11.25C3.39773 11.25 3.73295 11.1719 4.00568 11.0156C4.28125 10.8594 4.48864 10.6577 4.62784 10.4105C4.76989 10.1634 4.84091 9.90341 4.84091 9.63068V8.71023C4.7983 8.76136 4.70455 8.80824 4.55966 8.85085C4.41761 8.89062 4.25284 8.92614 4.06534 8.95739C3.88068 8.9858 3.70028 9.01136 3.52415 9.03409C3.35085 9.05398 3.21023 9.07102 3.10227 9.08523C2.84091 9.11932 2.59659 9.17472 2.36932 9.25142C2.14489 9.32528 1.96307 9.4375 1.82386 9.58807C1.6875 9.7358 1.61932 9.9375 1.61932 10.1932C1.61932 10.5426 1.74858 10.8068 2.0071 10.9858C2.26847 11.1619 2.59943 11.25 3 11.25ZM8.41513 12.0682C8.2049 12.0682 8.0245 11.9929 7.87393 11.8423C7.72337 11.6918 7.64808 11.5114 7.64808 11.3011C7.64808 11.0909 7.72337 10.9105 7.87393 10.7599C8.0245 10.6094 8.2049 10.5341 8.41513 10.5341C8.62536 10.5341 8.80575 10.6094 8.95632 10.7599C9.10689 10.9105 9.18217 11.0909 9.18217 11.3011C9.18217 11.4403 9.14666 11.5682 9.07564 11.6847C9.00746 11.8011 8.91513 11.8949 8.79865 11.9659C8.68501 12.0341 8.55717 12.0682 8.41513 12.0682ZM13.9094 8.28C15.0494 7.992 16.7654 7.5 18.3974 7.044L18.5054 7.884C16.9934 8.34 15.3854 8.832 14.1734 9.18L13.9094 8.28ZM14.0174 4.344H18.3854V5.208H14.0174V4.344ZM15.8174 1.932H16.7174V11.772C16.7174 12.288 16.5974 12.528 16.2854 12.672C15.9494 12.828 15.4574 12.84 14.6174 12.84C14.5934 12.6 14.4614 12.228 14.3414 11.988C14.9054 12 15.4334 12 15.5894 12C15.7574 12 15.8174 11.94 15.8174 11.772V1.932ZM18.4454 2.94H24.9734V3.828H18.4454V2.94ZM21.8654 3.252H22.8254V11.64C22.8254 12.264 22.6814 12.564 22.2374 12.72C21.7934 12.888 21.0374 12.9 19.8974 12.9C19.8494 12.624 19.6814 12.18 19.5374 11.916C20.4254 11.952 21.2894 11.952 21.5534 11.94C21.7934 11.928 21.8654 11.856 21.8654 11.64V3.252ZM30.0134 2.46L30.6734 2.22C31.0094 2.736 31.3454 3.444 31.4654 3.888L30.7694 4.176C30.6494 3.72 30.3254 2.988 30.0134 2.46ZM30.9974 5.184L31.7294 4.98C31.9814 5.424 32.2334 6.012 32.3294 6.384L31.5494 6.636C31.4654 6.252 31.2374 5.64 30.9974 5.184ZM35.8094 2.172L36.6014 2.436C36.2654 3.06 35.8934 3.768 35.5814 4.236L34.9694 3.996C35.2454 3.504 35.6174 2.712 35.8094 2.172ZM34.7174 4.92L35.5214 5.148C35.2574 5.688 34.9814 6.264 34.7414 6.636L34.0454 6.42C34.2734 6.012 34.5734 5.352 34.7174 4.92ZM29.8214 4.26H36.9254V5.028H29.8214V4.26ZM29.9054 6.516H36.5774V7.212H29.9054V6.516ZM30.1334 8.028H36.3974V8.724H30.1334V8.028ZM29.4494 9.588H36.9134V10.308H29.4494V9.588ZM32.6894 6.816H33.5534V8.748C33.5534 10.2 33.0614 11.892 29.6174 12.996C29.5094 12.816 29.2574 12.516 29.0654 12.336C32.3774 11.4 32.6894 9.912 32.6894 8.736V6.816ZM33.8414 9.888C34.3574 11.088 35.5214 11.94 37.1174 12.264C36.9374 12.444 36.6974 12.756 36.5894 12.984C34.8854 12.54 33.6854 11.544 33.0854 10.044L33.8414 9.888ZM31.9694 1.92H32.7134V4.644H31.9694V1.92ZM33.7094 1.92H34.4654V4.644H33.7094V1.92ZM25.7654 8.148C26.7014 7.884 28.1054 7.452 29.4734 7.008L29.5934 7.836C28.3454 8.268 27.0254 8.7 26.0054 9.024L25.7654 8.148ZM25.9334 4.344H29.5814V5.184H25.9334V4.344ZM27.4454 1.932H28.2854V11.916C28.2854 12.42 28.1654 12.66 27.8654 12.804C27.5894 12.948 27.1214 12.972 26.3654 12.972C26.3294 12.756 26.2214 12.384 26.1014 12.132C26.6294 12.144 27.0854 12.144 27.2294 12.132C27.3734 12.132 27.4454 12.096 27.4454 11.916V1.932Z" fill="#000000"/>
</svg>
